<svg xmlns="http://www.w3.org/2000/svg" width="184" height="60" viewBox="0 0 184 60">
  <g id="Group_34" data-name="Group 34" transform="translate(-436 -360)">
    <path id="Path_122" data-name="Path 122" d="M697.554,360a18.546,18.546,0,1,0,18.512,18.58A18.546,18.546,0,0,0,697.554,360Zm-.065,27.777a9.273,9.273,0,1,1,9.29-9.256A9.273,9.273,0,0,1,697.489,387.777Z" transform="translate(-201.66 0)" fill="#ee7667"/>
    <path id="Path_123" data-name="Path 123" d="M945.417,360a4.636,4.636,0,0,0-4.143,2.579l-.006,0-9.514,20.446a.259.259,0,0,1-.47,0l-9.347-20.048-.283-.606h0a4.637,4.637,0,0,0-8.4,3.847l.583,1.34,11.334,24.384.735,1.551a6.183,6.183,0,0,0,11.263-.057l.711-1.494,11.65-25.126A4.636,4.636,0,0,0,945.417,360Z" transform="translate(-395.872 0)" fill="#ee7667"/>
    <path id="Path_124" data-name="Path 124" d="M1403.921,364.187a4.636,4.636,0,0,0-5.784-2.995v-.008l-.083.026a24.673,24.673,0,0,0-7.817,4.209v-.782a4.637,4.637,0,0,0-9.274,0v19.59q-.01.5,0,.994v7.235a4.637,4.637,0,0,0,9.274,0v-7.415q-.006-.31,0-.619a15.461,15.461,0,0,1,10.509-14.335c.066-.018.131-.037.2-.058l.026-.009c.051-.017.1-.035.152-.054A4.636,4.636,0,0,0,1403.921,364.187Z" transform="translate(-784.149 0)" fill="#ee7667"/>
    <path id="Path_125" data-name="Path 125" d="M471.738,390.353h0l-4.353-4.319c-.039-.049-.079-.1-.121-.144a4.686,4.686,0,0,0-6.533-.5,9.257,9.257,0,0,1-14.787-10.31l.01-.025c.043-.108.089-.214.137-.32.028-.063.057-.126.087-.188s.053-.111.081-.166c.059-.118.12-.235.184-.351l.008-.014a9.277,9.277,0,0,1,14.656-2.038h0c.088.088.18.171.273.25a9.261,9.261,0,0,1,2.222,4.221h0a4.636,4.636,0,0,0,9.042-2.059l-.062-.321a16.208,16.208,0,0,0-1.723-4.435,18.485,18.485,0,0,0-11.147-8.9l-.205-.057-.166-.046a18.532,18.532,0,1,0-7.412,36.247l.136.019.232.03a18.474,18.474,0,0,0,10.911-1.978l1.974,1.957h0a4.634,4.634,0,0,0,6.759-6.334C471.876,390.494,471.808,390.422,471.738,390.353Z" transform="translate(0 0)" fill="#ee7667"/>
    <path id="Path_126" data-name="Path 126" d="M468.3,604.148a4.631,4.631,0,0,0-1.075,1.669c-.012.036-.026.071-.039.107l0,.012a9.263,9.263,0,0,1-16.595,1.782,9.357,9.357,0,0,1-.818-1.662c-.014-.045-.029-.089-.045-.133s-.024-.066-.036-.1a4.637,4.637,0,0,0-8.7,3.219l0,.007.011.03a18.531,18.531,0,0,0,34.845.148c.024-.059.047-.118.069-.178.034-.093.065-.186.093-.28a4.639,4.639,0,0,0-7.711-4.622Z" transform="translate(-3.907 -201.379)" fill="#ee7667"/>
    <path id="Path_127" data-name="Path 127" d="M1164.905,373.217l-2.137,1.663a4.7,4.7,0,0,0-1.085,6.282,4.637,4.637,0,0,0,6.71,1.091l6.306-4.909,1.825-1.42.054-.042a7.726,7.726,0,0,0-.186-12.335l-.2-.146-.013-.009a18.548,18.548,0,1,0,.761,29.839l0,0h0a4.7,4.7,0,0,0,.863-6.435,4.637,4.637,0,0,0-6.561-.881l-.026-.033-.007.006a9.273,9.273,0,1,1-2.688-16.083.308.308,0,0,1,.086.534Z" transform="translate(-590.07 -0.041)" fill="#ee7667"/>
  </g>
</svg>
