<svg xmlns="http://www.w3.org/2000/svg" width="274" height="100" viewBox="0 0 274 100">
  <g id="Group_24" data-name="Group 24" transform="translate(-200 -77.778)">
    <path id="Path_79" data-name="Path 79" d="M582.482,178.215a1.384,1.384,0,0,0-1.089-.472,1.5,1.5,0,0,0-.792.216,1.47,1.47,0,0,0-.554.61q-.515,1.062-1.444,2.813a29.232,29.232,0,0,1-2.157,3.442,16.548,16.548,0,0,1-2.691,2.931,4.677,4.677,0,0,1-3.047,1.239q-2.336,0-4-2.852a25.776,25.776,0,0,1-2.651-7.848q2.216-4.013,4.155-8.242a85.712,85.712,0,0,0,3.364-8.477,68.262,68.262,0,0,0,2.256-8.439,41.693,41.693,0,0,0,.831-8.123,31.085,31.085,0,0,0-.4-5.39,12.8,12.8,0,0,0-1.108-3.58,4.722,4.722,0,0,0-1.76-1.987,4.6,4.6,0,0,0-2.355-.609,4.046,4.046,0,0,0-2.968,1.337,12.192,12.192,0,0,0-2.315,3.619,31.471,31.471,0,0,0-1.742,5.311q-.733,3.03-1.207,6.413t-.693,6.924q-.218,3.54-.218,6.845,0,2.283.138,5.233t.535,6.078c.1.759.212,1.511.337,2.26a1.5,1.5,0,0,0-.32.138,1.469,1.469,0,0,0-.554.61q-.514,1.062-1.444,2.813a29.277,29.277,0,0,1-2.157,3.442,16.551,16.551,0,0,1-2.691,2.931,4.677,4.677,0,0,1-3.047,1.24q-2.335,0-4-2.852a25.779,25.779,0,0,1-2.651-7.848q2.216-4.013,4.156-8.242a85.726,85.726,0,0,0,3.364-8.477,68.287,68.287,0,0,0,2.256-8.439,41.7,41.7,0,0,0,.831-8.123,31.084,31.084,0,0,0-.4-5.39,12.8,12.8,0,0,0-1.108-3.58,4.718,4.718,0,0,0-1.76-1.987,4.606,4.606,0,0,0-2.355-.609,4.046,4.046,0,0,0-2.968,1.337,12.19,12.19,0,0,0-2.315,3.619,31.466,31.466,0,0,0-1.742,5.311q-.733,3.03-1.207,6.413t-.693,6.924q-.218,3.54-.218,6.845,0,2.283.138,5.233t.534,6.078c.114.9.253,1.794.409,2.679a1.516,1.516,0,0,0-.172.074,1.463,1.463,0,0,0-.554.61,50.4,50.4,0,0,1-2.493,4.425,27.678,27.678,0,0,1-2.514,3.4,12.614,12.614,0,0,1-2.434,2.2,4.17,4.17,0,0,1-2.295.786,4.571,4.571,0,0,1-1.405-.236,3.269,3.269,0,0,1-1.385-.944,5.342,5.342,0,0,1-1.069-1.987,11.182,11.182,0,0,1-.415-3.363q0-1.535.1-3.364t.237-3.461q.139-1.633.237-2.814t.1-1.416a1.537,1.537,0,0,0-.4-1.042,1.262,1.262,0,0,0-.99-.453,1.477,1.477,0,0,0-1.088.413,1.661,1.661,0,0,0-.495.964q-.436,3.384-.594,6.688a.377.377,0,0,0-.1.138,1.125,1.125,0,0,1-.06.137,24.347,24.347,0,0,1-2.117,3.718,26.238,26.238,0,0,1-3.205,3.815,33.26,33.26,0,0,1-4.274,3.56,30.882,30.882,0,0,1-5.323,2.99q0-1.26.02-2.97t.019-3.58v-7.219q2.177-3.894,4.1-7.907a74.025,74.025,0,0,0,3.344-8.222,62.854,62.854,0,0,0,2.256-8.694,50.886,50.886,0,0,0,.831-9.284,29.106,29.106,0,0,0-.317-4.367,13.662,13.662,0,0,0-1.029-3.639,6.706,6.706,0,0,0-1.861-2.478,4.338,4.338,0,0,0-2.81-.924A4.109,4.109,0,0,0,509.364,135a15.19,15.19,0,0,0-2.157,5.567,63.256,63.256,0,0,0-1.148,8.969q-.356,5.311-.475,12.077-.08,3.541-.119,7.494t-.079,8.045c0,.258,0,.515-.005.774a1.6,1.6,0,0,0-.232.367q-.437,1.024-1.326,2.676a25.292,25.292,0,0,1-2.1,3.245,15.946,15.946,0,0,1-2.633,2.753,4.6,4.6,0,0,1-2.927,1.16,2.232,2.232,0,0,1-1.346-.374,2.377,2.377,0,0,1-.792-1.023,5.386,5.386,0,0,1-.376-1.514,15.9,15.9,0,0,1-.1-1.81c0-.5.019-1.029.059-1.593s.079-1.121.118-1.672.08-1.069.119-1.554.059-.9.059-1.24a6.564,6.564,0,0,0-.989-3.7,3.4,3.4,0,0,0-3.047-1.495,4.774,4.774,0,0,0-2.2.61,7.848,7.848,0,0,0-2.316,1.987q-1.149,1.417-2.2,2.99t-2,3.167q-.95,1.594-1.78,3.148t-1.464,2.852q.119-1.14.257-2.832t.3-3.4q.159-1.712.257-3.206t.1-2.2a9.555,9.555,0,0,0-.179-1.849,6.449,6.449,0,0,0-.554-1.652,3.234,3.234,0,0,0-1.009-1.2,2.59,2.59,0,0,0-1.543-.452q-1.543,0-3.107,1.986a28.177,28.177,0,0,0-3.344,6.2c-.015.039-.021.075-.033.112q-.8,1.774-1.788,3.546a19.4,19.4,0,0,1-2.335,3.345,11.623,11.623,0,0,1-2.889,2.419,7.456,7.456,0,0,1-6.727.236,6.141,6.141,0,0,1-2.137-1.83,16.919,16.919,0,0,0,2.889-1.77,12.951,12.951,0,0,0,2.316-2.242,10.2,10.2,0,0,0,1.524-2.635,8.257,8.257,0,0,0,.554-3.03,5.5,5.5,0,0,0-.435-2.241,5.269,5.269,0,0,0-1.148-1.672,5.188,5.188,0,0,0-1.6-1.062,4.627,4.627,0,0,0-1.8-.374,5.766,5.766,0,0,0-2.829.709,6.839,6.839,0,0,0-2.216,1.966,9.314,9.314,0,0,0-1.425,2.951c-.1.351-.183.715-.254,1.085a1.5,1.5,0,0,0-.32.449q-.83,1.85-1.86,3.7a19.425,19.425,0,0,1-2.334,3.345,11.625,11.625,0,0,1-2.889,2.419,7.456,7.456,0,0,1-6.728.236,6.133,6.133,0,0,1-2.137-1.83,16.939,16.939,0,0,0,2.889-1.77,12.946,12.946,0,0,0,2.315-2.242,10.19,10.19,0,0,0,1.524-2.635,8.246,8.246,0,0,0,.554-3.03,5.489,5.489,0,0,0-.435-2.241,5.269,5.269,0,0,0-1.148-1.672,5.182,5.182,0,0,0-1.6-1.062,4.625,4.625,0,0,0-1.8-.374,5.768,5.768,0,0,0-2.83.709,6.849,6.849,0,0,0-2.216,1.966,9.326,9.326,0,0,0-1.425,2.951c-.105.359-.187.732-.259,1.113a1.4,1.4,0,0,0-.276.343q-.673,1.3-1.682,3.029a25.545,25.545,0,0,1-2.275,3.285,15.025,15.025,0,0,1-2.77,2.655,5.326,5.326,0,0,1-3.205,1.1,4.033,4.033,0,0,1-1.227-.216,3.379,3.379,0,0,1-1.266-.767,4.25,4.25,0,0,1-.989-1.475,5.976,5.976,0,0,1-.4-2.341,17.381,17.381,0,0,1,.119-2.006q.119-1.023.277-2.065t.277-2.026a15.756,15.756,0,0,0,.119-1.888,3.965,3.965,0,0,0-1.188-3.226,5.277,5.277,0,0,0-3.443-.983q-.594,0-1.246.02t-1.326.02a14.65,14.65,0,0,0-.138-1.849,11.185,11.185,0,0,0-.455-2.026,4.763,4.763,0,0,0-.891-1.633,1.865,1.865,0,0,0-1.484-.669,2.264,2.264,0,0,0-1.583.807,9.353,9.353,0,0,0-1.425,1.907,12.159,12.159,0,0,0-1.009,2.242,6.21,6.21,0,0,0-.376,1.81,2.265,2.265,0,0,0,.4,1.416,2.3,2.3,0,0,0,1.009.748,4.308,4.308,0,0,0,1.326.275q.713.04,1.385.039-.356,1.731-.593,2.557c-.123.43-.231.761-.322,1a1.7,1.7,0,0,0-.232.377q-2.889,6.374-10.329,16.011.039-2.832.1-5.37t.1-4.464q.039-1.928.079-3.088t.04-1.2a1.66,1.66,0,0,0-.376-1.062,1.266,1.266,0,0,0-1.048-.472,1.525,1.525,0,0,0-1.029.374,1.458,1.458,0,0,0-.515.925,13.329,13.329,0,0,1-.93,3.54,9.335,9.335,0,0,1-1.524,2.478,6.189,6.189,0,0,1-1.8,1.456,3.9,3.9,0,0,1-1.761.472,2.948,2.948,0,0,1-2.572-1.161,5.12,5.12,0,0,1-.831-3.049,10.169,10.169,0,0,1,.831-4.308,9.279,9.279,0,0,1,2.057-2.931,7.99,7.99,0,0,1,2.652-1.671,7.537,7.537,0,0,1,2.612-.531,5.247,5.247,0,0,1,1.366.157,4.314,4.314,0,0,1,.99.394,4.645,4.645,0,0,1,.672.452c.171.145.31.256.416.334a1.64,1.64,0,0,0,1.068.433,1.38,1.38,0,0,0,1.029-.453,1.458,1.458,0,0,0,.435-1.042,1.527,1.527,0,0,0-.435-1.062c-.026-.026-.172-.157-.435-.393a5.975,5.975,0,0,0-1.128-.748,9.911,9.911,0,0,0-1.761-.708,7.69,7.69,0,0,0-2.256-.314,10.122,10.122,0,0,0-3.779.786,11.033,11.033,0,0,0-3.581,2.361,12.463,12.463,0,0,0-2.671,3.914,13.1,13.1,0,0,0-1.049,5.409,8.847,8.847,0,0,0,.435,2.832,7.046,7.046,0,0,0,1.227,2.262,5.459,5.459,0,0,0,1.919,1.5,5.829,5.829,0,0,0,2.513.531,6.957,6.957,0,0,0,3.265-.866,8.849,8.849,0,0,0,2.83-2.36q-.08,2.282-.1,5t-.059,5.469a32.465,32.465,0,0,0-3.067,3.934,47.726,47.726,0,0,0-2.671,4.524q-1.227,2.36-2.237,4.859t-1.721,4.937a39.917,39.917,0,0,0-1.088,4.74,26.547,26.547,0,0,0-.376,4.268,9.76,9.76,0,0,0,1.425,5.7,4.7,4.7,0,0,0,4.076,2.006,5.615,5.615,0,0,0,3.225-.925,7.874,7.874,0,0,0,2.335-2.557,15.78,15.78,0,0,0,1.583-3.856,37.064,37.064,0,0,0,.969-4.838q.356-2.617.494-5.508t.139-5.842q0-2.95-.04-5.429t-.04-4.956q4.906-6.1,8.112-10.936a60.9,60.9,0,0,0,4.946-8.77l0,0a2.738,2.738,0,0,0,.2-.473q.157-.432.376-1.121t.455-1.613a19.842,19.842,0,0,0,.4-1.986q.751-.04,1.4-.04h1.207a2.062,2.062,0,0,1,1.484.374,1.633,1.633,0,0,1,.336,1.121,18.728,18.728,0,0,1-.4,3.718,19.592,19.592,0,0,0-.4,3.914,9.38,9.38,0,0,0,.555,3.325A7.437,7.437,0,0,0,413,189.17a6.25,6.25,0,0,0,2.2,1.534,6.888,6.888,0,0,0,2.691.531,7.708,7.708,0,0,0,4.215-1.22,15.875,15.875,0,0,0,3.463-2.99,26.015,26.015,0,0,0,2.6-3.558c.072.321.154.64.249.961a10.923,10.923,0,0,0,1.82,3.6,9.246,9.246,0,0,0,7.638,3.6,10.707,10.707,0,0,0,7.3-3.108,22.611,22.611,0,0,0,3.753-4.8c.058.237.114.475.184.712a10.912,10.912,0,0,0,1.82,3.6,9.246,9.246,0,0,0,7.638,3.6,10.706,10.706,0,0,0,7.3-3.108,28.437,28.437,0,0,0,5.915-8.922c.025-.043.059-.078.081-.125a30.622,30.622,0,0,1,2.334-4.78q.91-1.358,1.266-1.475a1.8,1.8,0,0,1,.317,1.1q.079.906.079,1.888,0,.749-.079,1.849t-.2,2.38q-.119,1.278-.237,2.576t-.237,2.419q-.119,1.122-.2,1.928c-.054.537-.079.9-.079,1.082a2.624,2.624,0,0,0,.692,1.947,2.5,2.5,0,0,0,1.841.689,2.754,2.754,0,0,0,1.623-.571,5.886,5.886,0,0,0,1.582-2.223q.394-.864,1.088-2.183t1.5-2.773q.809-1.455,1.741-2.931t1.821-2.655a13.386,13.386,0,0,1,1.7-1.907,2.314,2.314,0,0,1,1.444-.729,1.062,1.062,0,0,1,.712.453,2.689,2.689,0,0,1,.4,1.711c0,.5-.019,1.023-.059,1.573s-.092,1.1-.158,1.653-.118,1.075-.158,1.573-.058.944-.058,1.337a17.266,17.266,0,0,0,.217,2.734,7.36,7.36,0,0,0,.851,2.479,4.984,4.984,0,0,0,1.743,1.81,5.407,5.407,0,0,0,2.888.688,6.243,6.243,0,0,0,3.027-.787,12.811,12.811,0,0,0,2.691-1.967,18,18,0,0,0,2.276-2.616c.4-.554.757-1.085,1.1-1.6,0,.39-.007.782-.009,1.172q-.02,4.072-.039,7.789t-.02,6.963v5.684q0,4.918.1,9.108a42.779,42.779,0,0,0,.712,7.278A11.961,11.961,0,0,0,508,226.975a4.325,4.325,0,0,0,3.68,1.75,4.776,4.776,0,0,0,2.889-.924,7.659,7.659,0,0,0,2.157-2.538,13.546,13.546,0,0,0,1.345-3.8,22.834,22.834,0,0,0,.455-4.661,32.1,32.1,0,0,0-.534-5.685,36.243,36.243,0,0,0-1.583-5.881,33.4,33.4,0,0,0-2.632-5.606,25.7,25.7,0,0,0-3.72-4.9,34.759,34.759,0,0,0,7.975-4.957,30.646,30.646,0,0,0,5.283-5.7,12.41,12.41,0,0,0,.692,3.146,8.345,8.345,0,0,0,1.425,2.518,6.41,6.41,0,0,0,2.156,1.671,6.572,6.572,0,0,0,2.889.61,6.085,6.085,0,0,0,2.731-.668,11.915,11.915,0,0,0,2.572-1.751,19.559,19.559,0,0,0,2.315-2.439q1.088-1.358,2-2.734t1.622-2.675c.044-.079.083-.152.126-.229a24.708,24.708,0,0,0,1.775,4.832,12.051,12.051,0,0,0,2.889,3.816,6.064,6.064,0,0,0,4.076,1.455,6.7,6.7,0,0,0,2.909-.649,11.464,11.464,0,0,0,2.572-1.692,16.582,16.582,0,0,0,2.236-2.361,30.325,30.325,0,0,0,1.86-2.656q.83-1.337,1.484-2.576l.1-.2a25.037,25.037,0,0,0,1.878,5.214,12.051,12.051,0,0,0,2.889,3.816,6.064,6.064,0,0,0,4.076,1.455,6.691,6.691,0,0,0,2.909-.649,11.454,11.454,0,0,0,2.572-1.692,16.609,16.609,0,0,0,2.236-2.361,30.178,30.178,0,0,0,1.86-2.656q.831-1.337,1.484-2.576t1.088-2.144a1.83,1.83,0,0,0,.158-.63A1.568,1.568,0,0,0,582.482,178.215ZM508.415,169.4q.02-1.337.059-2.518t.059-2.4q.019-1.219.06-2.793,0-.746.019-2.242t.079-3.442q.06-1.947.178-4.17t.317-4.445q.2-2.222.495-4.268a29.627,29.627,0,0,1,.732-3.619,9.593,9.593,0,0,1,1.029-2.517,1.67,1.67,0,0,1,1.385-.944,1.773,1.773,0,0,1,1.326.609,4.7,4.7,0,0,1,.95,1.692,12.37,12.37,0,0,1,.554,2.616,29.734,29.734,0,0,1,.179,3.422,51.246,51.246,0,0,1-.554,7.514,61.259,61.259,0,0,1-1.543,7.317,63.44,63.44,0,0,1-2.355,6.944,66.431,66.431,0,0,1-2.988,6.392Q508.395,170.74,508.415,169.4ZM389.909,209.764q0,1.887-.079,4.13t-.277,4.5q-.2,2.262-.594,4.387a21.139,21.139,0,0,1-1.029,3.757,8.16,8.16,0,0,1-1.543,2.616,2.826,2.826,0,0,1-2.137.984,2.631,2.631,0,0,1-.851-.157,1.854,1.854,0,0,1-.831-.63,3.955,3.955,0,0,1-.633-1.338,8.408,8.408,0,0,1-.257-2.321,26.892,26.892,0,0,1,.573-5.172,44.482,44.482,0,0,1,1.642-5.96,51.444,51.444,0,0,1,2.573-6.078,39.24,39.24,0,0,1,3.364-5.567q.079,1.77.079,3.461Zm13.02-38.4q.079-.315.238-.787a7.476,7.476,0,0,1,.356-.885q.2-.412.376-.708t.3-.294q.119,0,.218.314a4.655,4.655,0,0,1,.158.747q.059.434.079.886t.02.727Zm28.039,10.7a8.585,8.585,0,0,1-.139-1.495,12.5,12.5,0,0,1,.217-2.3,7.918,7.918,0,0,1,.693-2.1,4.463,4.463,0,0,1,1.227-1.534,2.858,2.858,0,0,1,1.821-.59,1.877,1.877,0,0,1,1.385.609,2.468,2.468,0,0,1,.594,1.79,5.9,5.9,0,0,1-.4,2.105,8.008,8.008,0,0,1-1.108,1.986,9.288,9.288,0,0,1-1.721,1.731,9.66,9.66,0,0,1-2.236,1.3Q431.106,182.856,430.968,182.069Zm20.7,0a8.6,8.6,0,0,1-.139-1.495,12.445,12.445,0,0,1,.218-2.3,7.9,7.9,0,0,1,.693-2.1,4.451,4.451,0,0,1,1.227-1.534,2.855,2.855,0,0,1,1.82-.59,1.876,1.876,0,0,1,1.385.609,2.469,2.469,0,0,1,.594,1.79,5.893,5.893,0,0,1-.4,2.105,8,8,0,0,1-1.108,1.986,9.3,9.3,0,0,1-1.721,1.731,9.674,9.674,0,0,1-2.236,1.3Q451.8,182.856,451.665,182.069ZM511.4,201.542a33.291,33.291,0,0,1,2.276,4.976,30.823,30.823,0,0,1,1.385,5.212,29.635,29.635,0,0,1,.455,5.035q0,.944-.158,2.459a17.462,17.462,0,0,1-.574,2.97,8.22,8.22,0,0,1-1.168,2.518,2.283,2.283,0,0,1-1.939,1.061q-1.305,0-2-1.75a18.769,18.769,0,0,1-1.029-4.6,60.882,60.882,0,0,1-.376-6.432q-.04-3.58-.04-7.239,0-1.77.02-3.914t.02-4.623A22.724,22.724,0,0,1,511.4,201.542Zm31.936-28.521q-.2-2.124-.317-4.445t-.118-4.839q0-3.3.218-6.648t.593-6.413q.376-3.069.93-5.744a38.674,38.674,0,0,1,1.227-4.642,13.335,13.335,0,0,1,1.444-3.108q.772-1.141,1.6-1.14,1.266,0,2.018,2.005a20.853,20.853,0,0,1,.752,6.649A37.243,37.243,0,0,1,551,151.64a65.979,65.979,0,0,1-1.84,7.317q-1.148,3.68-2.652,7.278T543.339,173.021Zm20.008.355q-.2-2.124-.317-4.445t-.118-4.839q0-3.3.218-6.649t.593-6.412q.376-3.069.93-5.744a38.8,38.8,0,0,1,1.227-4.642,13.361,13.361,0,0,1,1.444-3.108q.772-1.141,1.6-1.14,1.266,0,2.018,2.005a20.861,20.861,0,0,1,.751,6.649A37.227,37.227,0,0,1,571,152a65.943,65.943,0,0,1-1.84,7.317q-1.149,3.68-2.651,7.278T563.347,173.376Z" transform="translate(-108.897 -55.314)" fill="#383a37"/>
    <path id="Path_80" data-name="Path 80" d="M658.988,194.29a3.469,3.469,0,0,0,3.489-3.489,3.456,3.456,0,0,0-1.016-2.473,3.5,3.5,0,0,0-1.111-.747A3.482,3.482,0,0,0,655.5,190.8a3.47,3.47,0,0,0,3.49,3.489Zm-.921-4.429a1.227,1.227,0,0,1,.921-.4,1.376,1.376,0,0,1,1.341,1.342,1.222,1.222,0,0,1-.4.92,1.32,1.32,0,0,1-.939.383,1.309,1.309,0,0,1-1.3-1.3A1.321,1.321,0,0,1,658.067,189.861Z" transform="translate(-241.333 -81.405)" fill="#383a37"/>
    <g id="Group_23" data-name="Group 23" transform="translate(200 92.081)">
      <path id="Path_81" data-name="Path 81" d="M270.282,161.435a29.02,29.02,0,1,0,29.02,29.02A29.02,29.02,0,0,0,270.282,161.435Zm11.067,33.24c-1.418,6.793-7.158,10.344-9.376,11.484a19.822,19.822,0,0,1-1.43,5.3,1.454,1.454,0,1,1-2.643-1.21,16.375,16.375,0,0,0,1.176-4.38c-6.877-6.093-10.229-12.473-9.943-18.975.435-9.889,9.114-16.238,9.483-16.5h0a1.456,1.456,0,0,1,1.9.172C279.171,179.532,282.816,187.646,281.349,194.675Z" transform="translate(-241.262 -161.435)" fill="#6da340"/>
      <path id="Path_82" data-name="Path 82" d="M282.428,198.935c-.215,5.075,2.268,10.169,7.376,15.171.086-1.847.059-3.606-.01-4.948a1.456,1.456,0,0,1,1.318-1.527h0A1.452,1.452,0,0,1,292.7,209c.065,1.286.117,3.267,0,5.453,2.206-1.483,5.307-4.251,6.185-8.5,1.194-5.785-1.888-12.678-9.164-20.5C287.6,187.313,282.711,192.291,282.428,198.935Z" transform="translate(-261.648 -173.33)" fill="#6da340"/>
    </g>
  </g>
</svg>
