<svg xmlns="http://www.w3.org/2000/svg" width="261" height="50" viewBox="0 0 261 50">
  <path id="Path_128" data-name="Path 128" d="M684.755,665.358V630.313H690v35.045Zm20.564,0h-5.246V630.313h5.176v2.453a22.335,22.335,0,0,1,10.842-3.154q6.993,0,9.408,3.785t2.413,13.457v18.5h-5.176V646.995q0-7.289-1.434-9.989t-6.12-2.7a18.24,18.24,0,0,0-4.722.666,23.532,23.532,0,0,0-3.812,1.3l-1.329.63Zm44.695-35.886a49.928,49.928,0,0,1,9.3,1.121l1.889.421-.281,7.43q-5.526-.561-8.183-.562-4.826,0-6.4,2.068t-1.574,7.816q0,5.748,1.574,7.885t6.47,2.138l8.113-.561.281,7.5a64.3,64.3,0,0,1-11.4,1.472q-7.765,0-11.157-4.38t-3.392-14.053q0-9.673,3.5-13.983T750.014,629.472Zm18.536,35.886V616.3h9.372v49.063ZM813.8,641.247v14.579a5.588,5.588,0,0,0,.559,2.348,2.594,2.594,0,0,0,1.748.946l-.279,7.079a26.456,26.456,0,0,1-5.7-.49,12.792,12.792,0,0,1-4.3-1.963,23.239,23.239,0,0,1-10.282,2.453q-10.843,0-10.842-11.495,0-5.606,3.008-7.955t9.233-2.768l7.484-.56v-2.173a3.713,3.713,0,0,0-.979-2.979,4.947,4.947,0,0,0-3.148-.805l-13.15.56-.28-6.519a54.372,54.372,0,0,1,14.234-2.032q6.75,0,9.723,2.8T813.8,641.247ZM798.066,650.5q-3.918.351-3.917,4.205t3.427,3.855a22.629,22.629,0,0,0,5.805-.841l1.049-.28v-7.5Zm49.8-11.425a111.341,111.341,0,0,0-12.135-1.121q-3.463,0-4.477.63a2.179,2.179,0,0,0-1.014,2,1.9,1.9,0,0,0,1.364,1.893,53.2,53.2,0,0,0,6.994,1.542q5.631,1.017,8.01,3.329t2.378,7.5q0,11.354-14.06,11.354a60.9,60.9,0,0,1-11.191-1.261l-2.238-.42.28-7.851a111.246,111.246,0,0,0,12.065,1.122,10.809,10.809,0,0,0,4.617-.666,2.146,2.146,0,0,0,1.224-2,2.068,2.068,0,0,0-1.293-1.962,33.385,33.385,0,0,0-6.715-1.542q-5.421-.911-8.079-3.084t-2.658-7.745q0-5.573,3.778-8.411a15.745,15.745,0,0,1,9.723-2.839,65.227,65.227,0,0,1,11.261,1.332l2.309.42Zm33.014,0a111.35,111.35,0,0,0-12.136-1.121q-3.463,0-4.477.63a2.178,2.178,0,0,0-1.014,2,1.9,1.9,0,0,0,1.364,1.893,53.205,53.205,0,0,0,6.994,1.542q5.63,1.017,8.009,3.329t2.378,7.5q0,11.354-14.059,11.354a60.9,60.9,0,0,1-11.192-1.261l-2.238-.42.28-7.851a111.244,111.244,0,0,0,12.066,1.122,10.807,10.807,0,0,0,4.616-.666,2.146,2.146,0,0,0,1.224-2,2.068,2.068,0,0,0-1.293-1.962,33.378,33.378,0,0,0-6.715-1.542q-5.422-.911-8.079-3.084t-2.658-7.745q0-5.573,3.777-8.411a15.745,15.745,0,0,1,9.723-2.839,65.221,65.221,0,0,1,11.261,1.332l2.309.42ZM644.036,620.129a23.083,23.083,0,1,0,23.036,23.083A23.06,23.06,0,0,0,644.036,620.129ZM639.659,656.2l-10.213-10.234,4.377-4.385,5.836,5.848,14.589-14.619,4.376,4.385Z" transform="translate(-621 -616.295)" fill="#0a2239"/>
</svg>
