<svg xmlns="http://www.w3.org/2000/svg" width="402" height="61" viewBox="0 0 402 61">
  <g id="Group_50" data-name="Group 50" transform="translate(-330 -505.11)">
    <path id="Path_11" data-name="Path 11" d="M399.712,508.837v10.754a.423.423,0,0,0,.231.376A46.4,46.4,0,0,1,417.12,535.4a.422.422,0,0,1,0,.449c-1.389,2.214-13.327,20.094-36.539,20.094s-35.15-17.88-36.539-20.094a.421.421,0,0,1,0-.448c1.246-1.984,10.976-16.566,29.711-19.556a.424.424,0,0,1,.49.419v29.089a.424.424,0,0,0,.424.424h11.886a.424.424,0,0,0,.424-.424V505.817a.424.424,0,0,0-.382-.423c-1.925-.185-3.919-.285-5.985-.285-34.695,0-49.3,27.762-50.565,30.312a.418.418,0,0,0,0,.375c1.268,2.551,15.871,30.313,50.565,30.313s49.3-27.762,50.565-30.313a.419.419,0,0,0,0-.375c-1-2-10.206-19.534-30.9-26.985A.424.424,0,0,0,399.712,508.837Z" transform="translate(0 0)" fill="#de3f42"/>
    <g id="Group_2" data-name="Group 2" transform="translate(443.631 514.914)">
      <path id="Path_12" data-name="Path 12" d="M659.643,573.9V549.151h-6.065v-6.807h6.065v-9.158h8.23v9.158h7.178v6.807h-7.178V573.9Z" transform="translate(-653.578 -533.186)" fill="#1d1e18"/>
      <path id="Path_13" data-name="Path 13" d="M730.875,558.331h7.735l.248,5.445h.495a7.964,7.964,0,0,1,3.589-4.641,13.759,13.759,0,0,1,6.5-1.3v8.106a14.793,14.793,0,0,0-6.312,1.083A6.087,6.087,0,0,0,740,570.584a21.111,21.111,0,0,0-.9,6.931v12.376h-8.23Z" transform="translate(-703.709 -549.173)" fill="#1d1e18"/>
      <path id="Path_14" data-name="Path 14" d="M820.235,586.905h-.5a7.125,7.125,0,0,1-3.527,3.342,14.776,14.776,0,0,1-6,1.052,11.957,11.957,0,0,1-6.312-1.362,6.652,6.652,0,0,1-2.909-3.96,26.363,26.363,0,0,1-.743-6.993v-19.74h8.23v16.708a29.781,29.781,0,0,0,.34,5.477,2.62,2.62,0,0,0,1.423,2.042,10.514,10.514,0,0,0,3.744.464,7.351,7.351,0,0,0,3.868-.8,3.87,3.87,0,0,0,1.671-2.506,23.586,23.586,0,0,0,.4-5.043V559.244h8.23V590.8h-7.673Z" transform="translate(-748.699 -550.086)" fill="#1d1e18"/>
      <path id="Path_15" data-name="Path 15" d="M906.866,590.138q-3.435-.248-5.972-.619v-6.435q2.227.248,5.229.4t5.229.155a20.986,20.986,0,0,0,4.053-.278,2.5,2.5,0,0,0,1.64-.867,3.656,3.656,0,0,0,.371-1.887,4.811,4.811,0,0,0-.217-1.733,1.343,1.343,0,0,0-.866-.712,12.777,12.777,0,0,0-2.258-.4l-7.3-.928a8.366,8.366,0,0,1-4.332-1.486,5.771,5.771,0,0,1-2.011-3.063,18.815,18.815,0,0,1-.526-4.92q0-4.084,1.578-6.157a7.349,7.349,0,0,1,4.27-2.723,30.534,30.534,0,0,1,6.962-.65q2.722,0,5.786.278a39.926,39.926,0,0,1,4.981.711v6.312a93.2,93.2,0,0,0-9.592-.557,34.235,34.235,0,0,0-3.837.155,2.317,2.317,0,0,0-2.351,2.692,5.266,5.266,0,0,0,.186,1.671,1.211,1.211,0,0,0,.774.712,10.422,10.422,0,0,0,2.011.4l7.921.928a10.778,10.778,0,0,1,3.806,1.083,4.834,4.834,0,0,1,2.1,2.661,16.526,16.526,0,0,1,.712,5.539q0,4.269-1.424,6.4a6.811,6.811,0,0,1-3.96,2.847,25.855,25.855,0,0,1-6.745.712Q910.3,590.386,906.866,590.138Z" transform="translate(-813.331 -549.173)" fill="#1d1e18"/>
      <path id="Path_16" data-name="Path 16" d="M988.723,573.9V549.151h-6.065v-6.807h6.065v-9.158h8.23v9.158h7.178v6.807h-7.178V573.9Z" transform="translate(-867.001 -533.186)" fill="#1d1e18"/>
      <path id="Path_17" data-name="Path 17" d="M1079.632,573.183a29.861,29.861,0,0,0-.34-5.507,2.622,2.622,0,0,0-1.393-2.011,10.256,10.256,0,0,0-3.713-.464,7.508,7.508,0,0,0-3.929.8,3.882,3.882,0,0,0-1.671,2.537,23.568,23.568,0,0,0-.4,5.012v16.337h-8.231v-31.56h7.736l.248,3.9h.495a7.132,7.132,0,0,1,3.527-3.342,14.773,14.773,0,0,1,6-1.052,11.965,11.965,0,0,1,6.312,1.361,6.533,6.533,0,0,1,2.878,3.961,27.486,27.486,0,0,1,.711,6.993v19.74h-8.23Z" transform="translate(-917.131 -549.173)" fill="#1d1e18"/>
      <path id="Path_18" data-name="Path 18" d="M1188.93,576.586h-19.679a15.379,15.379,0,0,0,.5,4.7,2.976,2.976,0,0,0,2.228,1.825,27.206,27.206,0,0,0,6.126.464q3.651,0,9.592-.495V589.4a42.332,42.332,0,0,1-5.2.712q-3.218.279-6.312.279-6.868,0-10.087-1.547a7.418,7.418,0,0,1-4.146-4.827,38.76,38.76,0,0,1-.928-9.839,36.978,36.978,0,0,1,.959-9.684,8.021,8.021,0,0,1,4.022-4.982q3.064-1.671,9.5-1.671,6.311,0,9.158,1.64a7.151,7.151,0,0,1,3.558,4.827,49.564,49.564,0,0,1,.712,9.87Zm-17.575-11.665a2.815,2.815,0,0,0-1.64,1.95,20.271,20.271,0,0,0-.464,4.641h11.881a16.2,16.2,0,0,0-.495-4.7,2.93,2.93,0,0,0-1.672-1.949,10.374,10.374,0,0,0-3.589-.464A11.134,11.134,0,0,0,1171.355,564.921Z" transform="translate(-982.677 -549.173)" fill="#1d1e18"/>
      <path id="Path_19" data-name="Path 19" d="M1281.816,590.8l-5.26-18.069h-.5l-5.2,18.069h-10.025l-8.787-31.56h8.292l5.569,22.463h.495l6.25-22.463h7.55l6.25,22.463h.557l5.508-22.463h8.107l-8.85,31.56Z" transform="translate(-1041.714 -550.086)" fill="#1d1e18"/>
      <path id="Path_20" data-name="Path 20" d="M1409.026,590.138q-3.435-.248-5.972-.619v-6.435q2.227.248,5.229.4t5.229.155a20.985,20.985,0,0,0,4.053-.278,2.5,2.5,0,0,0,1.64-.867,3.654,3.654,0,0,0,.372-1.887,4.8,4.8,0,0,0-.217-1.733,1.342,1.342,0,0,0-.866-.712,12.781,12.781,0,0,0-2.259-.4l-7.3-.928a8.366,8.366,0,0,1-4.332-1.486,5.772,5.772,0,0,1-2.011-3.063,18.82,18.82,0,0,1-.526-4.92q0-4.084,1.578-6.157a7.348,7.348,0,0,1,4.269-2.723,30.538,30.538,0,0,1,6.962-.65q2.723,0,5.786.278a39.943,39.943,0,0,1,4.981.711v6.312a93.213,93.213,0,0,0-9.592-.557,34.23,34.23,0,0,0-3.837.155,2.317,2.317,0,0,0-2.351,2.692,5.272,5.272,0,0,0,.185,1.671,1.211,1.211,0,0,0,.774.712,10.42,10.42,0,0,0,2.011.4l7.921.928a10.78,10.78,0,0,1,3.806,1.083,4.836,4.836,0,0,1,2.1,2.661,16.527,16.527,0,0,1,.712,5.539q0,4.269-1.423,6.4a6.811,6.811,0,0,1-3.96,2.847,25.855,25.855,0,0,1-6.745.712Q1412.46,590.386,1409.026,590.138Z" transform="translate(-1139.005 -549.173)" fill="#1d1e18"/>
    </g>
  </g>
</svg>
